<svg width="20" height="20" viewBox="0 0 20 20" fill="none" xmlns="http://www.w3.org/2000/svg">
<path d="M1.66602 16.6667V10C1.66602 9.55798 1.84161 9.13406 2.15417 8.8215C2.46673 8.50894 2.89065 8.33334 3.33268 8.33334H16.666C17.108 8.33334 17.532 8.50894 17.8445 8.8215C18.1571 9.13406 18.3327 9.55798 18.3327 10V16.6667" stroke="#F7F7FF" stroke-width="1.5" stroke-linecap="round" stroke-linejoin="round"/>
<path d="M3.33398 8.33334V5.00001C3.33398 4.55798 3.50958 4.13406 3.82214 3.8215C4.1347 3.50894 4.55862 3.33334 5.00065 3.33334H15.0007C15.4427 3.33334 15.8666 3.50894 16.1792 3.8215C16.4917 4.13406 16.6673 4.55798 16.6673 5.00001V8.33334" stroke="#F7F7FF" stroke-width="1.5" stroke-linecap="round" stroke-linejoin="round"/>
<path d="M10 3.33334V8.33334" stroke="#F7F7FF" stroke-width="1.5" stroke-linecap="round" stroke-linejoin="round"/>
<path d="M1.66602 15H18.3327" stroke="#F7F7FF" stroke-width="1.5" stroke-linecap="round" stroke-linejoin="round"/>
</svg>
